Coordinates
version=1
nRows=4
nColumns=124
inDegrees=yes

Units are S.I. units (second, meters, Newtons, ...)
If the header above contains a line with 'inDegrees', this indicates whether rotational values are in degrees (yes) or radians (no).

endheader 
time	pelvis_tilt	pelvis_list	pelvis_rotation	pelvis_tx	pelvis_ty	pelvis_tz	hip_flexion_l	hip_adduction_l	hip_rotation_l	hip_flexion_r	hip_adduction_r	hip_rotation_r	knee_angle_l	knee_angle_r	ankle_angle_l	ankle_angle_r	subtalar_angle_l	subtalar_angle_r	mtp_angle_l	mtp_angle_r	lumbar_extension	lumbar_bending	lumbar_rotation	arm_flex_l	arm_add_l	arm_rot_l	arm_flex_r	arm_add_r	arm_rot_r	elbow_flex_l	elbow_flex_r	glut_med1_l/activation	glut_med2_l/activation	glut_med3_l/activation	glut_min1_l/activation	glut_min2_l/activation	glut_min3_l/activation	semimem_l/activation	semiten_l/activation	bifemlh_l/activation	bifemsh_l/activation	sar_l/activation	add_long_l/activation	add_brev_l/activation	add_mag1_l/activation	add_mag2_l/activation	add_mag3_l/activation	tfl_l/activation	pect_l/activation	grac_l/activation	glut_max1_l/activation	glut_max2_l/activation	glut_max3_l/activation	iliacus_l/activation	psoas_l/activation	quad_fem_l/activation	gem_l/activation	peri_l/activation	rect_fem_l/activation	vas_med_l/activation	vas_int_l/activation	vas_lat_l/activation	med_gas_l/activation	lat_gas_l/activation	soleus_l/activation	tib_post_l/activation	flex_dig_l/activation	flex_hal_l/activation	tib_ant_l/activation	per_brev_l/activation	per_long_l/activation	per_tert_l/activation	ext_dig_l/activation	ext_hal_l/activation	ercspn_l/activation	intobl_l/activation	extobl_l/activation	glut_med1_r/activation	glut_med2_r/activation	glut_med3_r/activation	glut_min1_r/activation	glut_min2_r/activation	glut_min3_r/activation	semimem_r/activation	semiten_r/activation	bifemlh_r/activation	bifemsh_r/activation	sar_r/activation	add_long_r/activation	add_brev_r/activation	add_mag1_r/activation	add_mag2_r/activation	add_mag3_r/activation	tfl_r/activation	pect_r/activation	grac_r/activation	glut_max1_r/activation	glut_max2_r/activation	glut_max3_r/activation	iliacus_r/activation	psoas_r/activation	quad_fem_r/activation	gem_r/activation	peri_r/activation	rect_fem_r/activation	vas_med_r/activation	vas_int_r/activation	vas_lat_r/activation	med_gas_r/activation	lat_gas_r/activation	soleus_r/activation	tib_post_r/activation	flex_dig_r/activation	flex_hal_r/activation	tib_ant_r/activation	per_brev_r/activation	per_long_r/activation	per_tert_r/activation	ext_dig_r/activation	ext_hal_r/activation	ercspn_r/activation	intobl_r/activation	extobl_r/activation	
          0.41716389	         -6.37773624	          2.11321379	         -0.51113887	          0.30533218	          1.01268168	          0.01402546	          8.81217421	          4.89934171	         -0.09445536	         12.14976860	          4.61972454	         14.95917660	        -42.25582935	        -10.89211060	         13.68300291	          8.58775895	          3.44043631	        -10.17455712	          2.18156175	          3.16452283	          3.20518255	          0.58051979	         -8.93450054	         -2.94859594	        -13.46345937	         19.34870369	        -15.86479431	        -13.46351945	         18.98905850	         68.60303342	          8.88828279	          0.05000232	          0.05000169	          0.05000128	          0.05002135	          0.05000947	          0.05000489	          0.05001657	          0.05000364	          0.05000151	          0.35679165	          0.17231818	          0.19418263	          0.25328145	          0.05018232	          0.05002422	          0.05000192	          0.26437992	          0.19416438	          0.22164989	          0.05000291	          0.05000144	          0.05000138	          0.13807157	          0.15686427	          0.05002814	          0.05002046	          0.05000356	          0.05000619	          0.05000100	          0.05000092	          0.05000069	          0.05000080	          0.05000160	          0.05000020	          0.05000131	          0.05000641	          0.05000471	          0.34320232	          0.15698234	          0.06427621	          0.37567553	          0.45116782	          0.37391577	          0.08873427	          0.12437541	          0.05281801	          0.63424568	          0.48867459	          0.44201287	          0.42484952	          0.46343875	          0.47375828	          0.06573055	          0.05002641	          0.05891485	          0.05000644	          0.05001853	          0.05000173	          0.05000223	          0.05000669	          0.05001128	          0.05003925	          0.23373818	          0.05000897	          0.05000553	          0.25113530	          0.16598072	          0.05001255	          0.05000184	          0.05000192	          0.05000342	          0.05003109	          0.36166738	          0.10324618	          0.12156475	          0.12876595	          0.10762999	          0.09036888	          0.05002623	          0.08431437	          0.25887875	          0.10530905	          0.09586352	          0.10670230	          0.05000726	          0.05000399	          0.05002243	          0.05001292	          0.05005938	          0.05000070	          0.05000066	          0.05000091	
          0.43385045	         -6.33980066	          2.35598891	         -0.80181417	          0.31350395	          1.01348169	          0.01463564	         10.34491080	          5.10218048	         -0.23530874	         11.45284935	          4.34545986	         15.08146670	        -42.24873477	        -10.54827848	         14.54433810	          8.63882376	          2.91860309	        -10.06888553	          1.71237728	          3.55436118	          3.02556114	          0.43257336	         -8.80423121	         -2.29365485	        -13.46346227	         19.34870986	        -15.74785882	        -13.46350119	         18.99096170	         69.13656507	          9.14870792	          0.05000210	          0.05000167	          0.05000130	          0.05001776	          0.05000911	          0.05000496	          0.05001157	          0.05000266	          0.05000119	          0.37585051	          0.17823477	          0.19818238	          0.25506988	          0.05009949	          0.05002021	          0.05000169	          0.26455513	          0.19017570	          0.20946411	          0.05000257	          0.05000127	          0.05000124	          0.13300530	          0.15125802	          0.05004440	          0.05002468	          0.05000373	          0.05000572	          0.05000111	          0.05000102	          0.05000077	          0.05000073	          0.05000146	          0.05000019	          0.05000130	          0.05000622	          0.05000461	          0.36021358	          0.16696758	          0.07290234	          0.38038181	          0.44287576	          0.37315042	          0.08774627	          0.12549483	          0.05459267	          0.63358722	          0.48965377	          0.44385930	          0.42723134	          0.46604465	          0.47522766	          0.05880219	          0.05001751	          0.05273072	          0.05000746	          0.05002484	          0.05000170	          0.05000223	          0.05000640	          0.05001076	          0.05001705	          0.25854449	          0.05000889	          0.05000555	          0.24438584	          0.15921582	          0.05000905	          0.05000207	          0.05000217	          0.05000351	          0.05003262	          0.36523644	          0.12249488	          0.10676871	          0.11332257	          0.09514898	          0.10757349	          0.06193886	          0.08714754	          0.25980393	          0.10044707	          0.09172920	          0.09443682	          0.05000784	          0.05000438	          0.05002304	          0.05001330	          0.05005612	          0.05000069	          0.05000066	          0.05000094	
          0.45053701	         -6.30213600	          2.58424383	         -1.08912410	          0.32148122	          1.01419008	          0.01518511	         11.91816696	          5.28126829	         -0.34408837	         10.77986569	          4.08003880	         15.18570049	        -42.08958657	        -10.21986739	         15.30859501	          8.67090871	          2.37890565	         -9.98397377	          1.33164411	          3.98168353	          2.83768892	          0.29023138	         -8.64021383	         -1.58910847	        -13.46344788	         19.34879620	        -15.55667834	        -13.46349161	         19.02887527	         69.43492717	          9.50177551	          0.05000187	          0.05000163	          0.05000133	          0.05001438	          0.05000850	          0.05000497	          0.05000748	          0.05000205	          0.05000096	          0.38583218	          0.18543514	          0.20465626	          0.25721343	          0.05008236	          0.05001681	          0.05000150	          0.26233694	          0.18603972	          0.17162992	          0.05000227	          0.05000114	          0.05000113	          0.13073401	          0.14824998	          0.05225770	          0.05003384	          0.05000396	          0.05000511	          0.05000124	          0.05000114	          0.05000086	          0.05000069	          0.05000139	          0.05000020	          0.05000131	          0.05000623	          0.05000462	          0.37429492	          0.17425883	          0.08141416	          0.37972189	          0.43414893	          0.36745769	          0.08689173	          0.12586984	          0.05634962	          0.63129406	          0.49039482	          0.44624505	          0.43030072	          0.46754725	          0.47537247	          0.05193212	          0.05001239	          0.05002336	          0.05000861	          0.05004258	          0.05000170	          0.05000222	          0.05000612	          0.05001024	          0.05001176	          0.28150303	          0.05000890	          0.05000555	          0.23695591	          0.15147446	          0.05000687	          0.05000242	          0.05000250	          0.05000357	          0.05003385	          0.36859834	          0.14095308	          0.09297045	          0.09887890	          0.08344681	          0.12426049	          0.07860836	          0.08943200	          0.26048606	          0.09483091	          0.08646215	          0.08292490	          0.05000869	          0.05000494	          0.05002437	          0.05001405	          0.05005317	          0.05000071	          0.05000066	          0.05000098	
          0.46722356	         -6.26514666	          2.79680194	         -1.37334568	          0.32930649	          1.01481153	          0.01567487	         13.51058695	          5.43223471	         -0.41979028	         10.12846086	          3.82565466	         15.27349450	        -41.77781863	         -9.90791955	         15.94606936	          8.68917565	          1.84392947	         -9.91973140	          1.02511820	          4.44165729	          2.64513187	          0.15552526	         -8.44418278	         -0.84740750	        -13.46345852	         19.34880244	        -15.29403323	        -13.46346099	         19.09390361	         69.49470056	          9.94001497	          0.05000180	          0.05000162	          0.05000134	          0.05001366	          0.05000844	          0.05000503	          0.05000444	          0.05000165	          0.05000079	          0.38629157	          0.19224236	          0.21463151	          0.26061495	          0.05005894	          0.05001390	          0.05000135	          0.25907073	          0.18009305	          0.13430568	          0.05000204	          0.05000103	          0.05000103	          0.13220768	          0.14904275	          0.06314077	          0.05004049	          0.05000406	          0.05000525	          0.05000142	          0.05000131	          0.05000097	          0.05000069	          0.05000138	          0.05000021	          0.05000140	          0.05000647	          0.05000485	          0.38464674	          0.17882857	          0.08962863	          0.36938621	          0.42497268	          0.35563162	          0.08640099	          0.12550228	          0.05703209	          0.62721050	          0.48969519	          0.44753462	          0.42538673	          0.46557664	          0.47380185	          0.05001140	          0.05000907	          0.05000780	          0.05000979	          0.05006993	          0.05000171	          0.05000224	          0.05000594	          0.05000993	          0.05000847	          0.30371547	          0.05000895	          0.05000560	          0.22786600	          0.14219235	          0.05000565	          0.05000292	          0.05000308	          0.05000375	          0.05003636	          0.37112152	          0.15891589	          0.08059438	          0.08557849	          0.07271951	          0.14046700	          0.09632050	          0.09157447	          0.26130472	          0.08887632	          0.08114506	          0.07224984	          0.05000953	          0.05000540	          0.05002556	          0.05001464	          0.05005087	          0.05000068	          0.05000067	          0.05000099	
